# Blender 4.3.2
# www.blender.org
mtllib mazo2.mtl
o mazo2
v 0.552146 1.596481 -0.272069
v -0.552145 1.596481 -0.272069
v 0.552146 1.648687 -0.256233
v -0.552145 1.648687 -0.256233
v 0.552146 1.696800 -0.230516
v -0.552145 1.696800 -0.230516
v 0.552146 1.738971 -0.195905
v -0.552145 1.738971 -0.195905
v 0.552146 1.773581 -0.153734
v -0.552145 1.773581 -0.153734
v 0.552146 1.799297 -0.105622
v -0.552145 1.799297 -0.105622
v 0.552146 1.815134 -0.053417
v -0.552145 1.815134 -0.053417
v 0.552146 1.820481 0.000875
v -0.552145 1.820481 0.000875
v 0.552146 1.815134 0.055169
v -0.552145 1.815134 0.055169
v 0.552146 1.799297 0.107373
v -0.552145 1.799297 0.107373
v 0.552146 1.773581 0.155487
v -0.552145 1.773581 0.155487
v 0.552146 1.738971 0.197658
v -0.552145 1.738971 0.197658
v 0.552146 1.696800 0.232268
v -0.552145 1.696800 0.232268
v 0.552146 1.648687 0.257985
v -0.552145 1.648687 0.257985
v 0.552146 1.596481 0.273820
v -0.552145 1.596481 0.273820
v 0.552146 1.542189 0.279167
v -0.552145 1.542189 0.279167
v 0.552146 1.487897 0.273820
v -0.552145 1.487897 0.273820
v 0.552146 1.435692 0.257985
v -0.552145 1.435692 0.257985
v 0.552146 1.387579 0.232268
v -0.552145 1.387579 0.232268
v 0.552146 1.345407 0.197659
v -0.552145 1.345407 0.197659
v 0.552146 1.310798 0.155487
v -0.552145 1.310798 0.155487
v 0.552146 1.285081 0.107373
v -0.552145 1.285081 0.107373
v 0.552146 1.269245 0.055169
v -0.552145 1.269245 0.055169
v 0.552146 1.263898 0.000875
v -0.552145 1.263898 0.000875
v 0.552146 1.269245 -0.053417
v -0.552145 1.269245 -0.053417
v 0.552146 1.285081 -0.105622
v -0.552145 1.285081 -0.105622
v 0.552146 1.310798 -0.153734
v -0.552145 1.310798 -0.153734
v 0.552146 1.345407 -0.195905
v -0.552145 1.345407 -0.195905
v 0.552146 1.387579 -0.230515
v -0.552145 1.387579 -0.230515
v 0.552146 1.435692 -0.256233
v -0.552145 1.435692 -0.256233
v 0.552146 1.487897 -0.272069
v -0.552145 1.487897 -0.272069
v 0.552146 1.542189 -0.277416
v -0.552145 1.542189 -0.277416
v -0.000000 1.506858 -0.100779
v -0.034202 1.506858 -0.094749
v -0.064278 1.506858 -0.077384
v -0.086602 1.506858 -0.050778
v -0.098480 1.506858 -0.018143
v -0.098480 1.506858 0.016587
v -0.086602 1.506858 0.049221
v -0.064278 1.506858 0.075825
v -0.034202 1.506858 0.093190
v -0.000000 1.506858 0.099221
v 0.034202 1.506858 0.093190
v 0.064279 1.506858 0.075825
v 0.086603 1.506858 0.049221
v 0.098481 1.506858 0.016587
v 0.098481 1.506858 -0.018143
v 0.086603 1.506858 -0.050778
v 0.064279 1.506858 -0.077384
v 0.034202 1.506858 -0.094749
v -0.034202 0.026858 -0.094748
v -0.000000 0.026858 -0.100778
v -0.064278 0.026858 -0.077383
v -0.086602 0.026858 -0.050778
v -0.098480 0.026858 -0.018143
v -0.098480 0.026858 0.016587
v -0.086602 0.026858 0.049222
v -0.064278 0.026858 0.075826
v -0.034202 0.026858 0.093191
v -0.000000 0.026858 0.099222
v 0.034202 0.026858 0.093191
v 0.064279 0.026858 0.075826
v 0.086603 0.026858 0.049222
v 0.098481 0.026858 0.016587
v 0.098481 0.026858 -0.018143
v 0.086603 0.026858 -0.050778
v 0.064279 0.026858 -0.077383
v 0.034202 0.026858 -0.094748
v 0.034202 0.866443 0.093190
v -0.000000 0.866443 0.099221
v -0.086602 0.866443 -0.050778
v -0.064278 0.866443 -0.077384
v -0.000000 0.866443 -0.100779
v 0.034202 0.866443 -0.094748
v 0.064279 0.866443 0.075825
v -0.098480 0.866443 -0.018143
v 0.086603 0.866443 0.049222
v -0.098480 0.866443 0.016587
v 0.098481 0.866443 0.016587
v -0.086602 0.866443 0.049222
v 0.098481 0.866443 -0.018143
v -0.064278 0.866443 0.075825
v 0.086603 0.866443 -0.050778
v -0.034202 0.866443 0.093190
v -0.034202 0.866443 -0.094748
v 0.064279 0.866443 -0.077384
v 0.034202 0.427616 0.093190
v -0.086602 0.427616 -0.050778
v -0.000000 0.427616 -0.100779
v 0.064279 0.427616 0.075826
v -0.098480 0.427616 -0.018143
v 0.086603 0.427616 0.049222
v -0.098480 0.427616 0.016587
v 0.098481 0.427616 0.016587
v -0.086602 0.427616 0.049222
v 0.098481 0.427616 -0.018143
v -0.064278 0.427616 0.075826
v 0.086603 0.427616 -0.050778
v -0.034202 0.427616 0.093190
v -0.034202 0.427616 -0.094748
v 0.064279 0.427616 -0.077383
v -0.000000 0.427616 0.099222
v -0.064278 0.427616 -0.077383
v 0.034202 0.427616 -0.094748
vn -1.0000 -0.0000 -0.0000
vn -0.0000 0.0980 -0.9952
vn -0.0000 0.2903 -0.9569
vn 1.0000 -0.0000 -0.0000
vn -0.0000 0.4714 -0.8819
vn -0.0000 0.6344 -0.7730
vn -0.0000 0.7730 -0.6344
vn -0.0000 0.8819 -0.4714
vn -0.0000 0.9569 -0.2903
vn -0.0000 0.9952 -0.0980
vn -0.0000 0.9952 0.0980
vn -0.0000 0.9569 0.2903
vn -0.0000 0.8819 0.4714
vn -0.0000 0.7730 0.6344
vn -0.0000 0.6344 0.7730
vn -0.0000 0.4714 0.8819
vn -0.0000 0.2903 0.9569
vn -0.0000 0.0980 0.9952
vn -0.0000 -0.0980 0.9952
vn -0.0000 -0.2903 0.9569
vn -0.0000 -0.4714 0.8819
vn -0.0000 -0.6344 0.7730
vn -0.0000 -0.7730 0.6344
vn -0.0000 -0.8819 0.4714
vn -0.0000 -0.9569 0.2903
vn -0.0000 -0.9952 0.0980
vn -0.0000 -0.9952 -0.0980
vn -0.0000 -0.9569 -0.2903
vn -0.0000 -0.8819 -0.4714
vn -0.0000 -0.7730 -0.6344
vn -0.0000 -0.6344 -0.7730
vn -0.0000 -0.4714 -0.8819
vn -0.0000 -0.2903 -0.9569
vn -0.0000 -0.0980 -0.9952
vn -0.0000 -1.0000 -0.0000
vn -0.0000 1.0000 -0.0000
vn -0.1737 -0.0000 -0.9848
vn 0.7660 -0.0000 0.6428
vn -0.1736 -0.0000 0.9848
vn -0.5000 -0.0000 -0.8660
vn 0.9397 -0.0000 0.3420
vn -0.7660 -0.0000 -0.6428
vn -0.9397 -0.0000 -0.3420
vn 0.9397 -0.0000 -0.3420
vn 0.7660 -0.0000 -0.6428
vn -0.9397 -0.0000 0.3420
vn 0.5000 -0.0000 -0.8660
vn 0.1736 -0.0000 0.9848
vn -0.7661 -0.0000 0.6428
vn 0.1737 -0.0000 -0.9848
vn 0.5000 -0.0000 0.8660
vn -0.5000 -0.0000 0.8660
vt 0.973321 0.501981
vt 0.971236 0.441249
vt 0.964353 0.382774
vt 0.952934 0.328804
vt 0.937420 0.281414
vt 0.918406 0.242423
vt 0.896623 0.213331
vt 0.872908 0.195256
vt 0.848173 0.188891
vt 0.823368 0.194483
vt 0.799447 0.211815
vt 0.777328 0.240222
vt 0.757861 0.278612
vt 0.741796 0.325510
vt 0.729748 0.379114
vt 0.722182 0.437363
vt 0.719387 0.498019
vt 0.721472 0.558751
vt 0.728356 0.617226
vt 0.739774 0.671196
vt 0.755289 0.718586
vt 0.774302 0.757577
vt 0.796085 0.786669
vt 0.819800 0.804744
vt 0.844535 0.811109
vt 0.869340 0.805517
vt 0.893262 0.788185
vt 0.915381 0.759778
vt 0.934847 0.721388
vt 0.950913 0.674490
vt 0.962960 0.620886
vt 0.970527 0.562637
vt 0.121760 0.957990
vt 0.664699 0.957990
vt 0.664699 0.988263
vt 0.121760 0.988263
vt 0.121760 0.927718
vt 0.664699 0.927718
vt 0.971006 0.446142
vt 0.973166 0.505413
vt 0.970454 0.564627
vt 0.962972 0.621507
vt 0.951008 0.673868
vt 0.935023 0.719697
vt 0.915630 0.757234
vt 0.893575 0.785035
vt 0.869705 0.802033
vt 0.844938 0.807574
vt 0.820225 0.801445
vt 0.796517 0.783882
vt 0.774724 0.755559
vt 0.755683 0.717566
vt 0.740127 0.671362
vt 0.728653 0.618722
vt 0.721702 0.561671
vt 0.719542 0.502399
vt 0.722255 0.443186
vt 0.729737 0.386305
vt 0.741700 0.333944
vt 0.757686 0.288115
vt 0.777078 0.250579
vt 0.799133 0.222777
vt 0.823003 0.205779
vt 0.847770 0.200239
vt 0.872483 0.206367
vt 0.896191 0.223931
vt 0.917985 0.252253
vt 0.937025 0.290246
vt 0.952581 0.336451
vt 0.964055 0.389090
vt 0.121760 0.897446
vt 0.664699 0.897446
vt 0.121760 0.867174
vt 0.664699 0.867174
vt 0.121760 0.836901
vt 0.664699 0.836901
vt 0.121760 0.806629
vt 0.664699 0.806629
vt 0.121760 0.776357
vt 0.664699 0.776357
vt 0.121760 0.746084
vt 0.664699 0.746084
vt 0.121760 0.715812
vt 0.664699 0.715812
vt 0.121760 0.685540
vt 0.664699 0.685540
vt 0.121760 0.655268
vt 0.664699 0.655268
vt 0.121760 0.624995
vt 0.664699 0.624995
vt 0.121760 0.594723
vt 0.664699 0.594723
vt 0.121760 0.564451
vt 0.664699 0.564451
vt 0.121760 0.534179
vt 0.664699 0.534179
vt 0.121760 0.503906
vt 0.664699 0.503906
vt 0.121760 0.473634
vt 0.664699 0.473634
vt 0.121760 0.443362
vt 0.664699 0.443362
vt 0.121760 0.413089
vt 0.664699 0.413089
vt 0.121760 0.382817
vt 0.664699 0.382817
vt 0.121760 0.352545
vt 0.664699 0.352545
vt 0.121760 0.322273
vt 0.664699 0.322273
vt 0.121760 0.292000
vt 0.664699 0.292000
vt 0.121760 0.261728
vt 0.664699 0.261728
vt 0.121760 0.231456
vt 0.664699 0.231456
vt 0.121760 0.201183
vt 0.664699 0.201183
vt 0.121760 0.170911
vt 0.664699 0.170911
vt 0.121760 0.140639
vt 0.664699 0.140639
vt 0.121760 0.110367
vt 0.664699 0.110367
vt 0.121760 0.080094
vt 0.664699 0.080094
vt 0.121760 0.049822
vt 0.664699 0.049822
vt 0.121760 0.019550
vt 0.664699 0.019550
vt 0.150690 0.928623
vt 0.154446 0.941843
vt 0.154446 0.955912
vt 0.150690 0.969132
vt 0.143632 0.979909
vt 0.134123 0.986944
vt 0.123309 0.989387
vt 0.112495 0.986944
vt 0.102986 0.979909
vt 0.095928 0.969132
vt 0.092172 0.955912
vt 0.092172 0.941843
vt 0.095928 0.928623
vt 0.102986 0.917846
vt 0.112495 0.910811
vt 0.123309 0.908368
vt 0.134123 0.910811
vt 0.143632 0.917846
vt 0.223518 0.955912
vt 0.219762 0.969132
vt 0.212704 0.979909
vt 0.203195 0.986944
vt 0.192381 0.989387
vt 0.181568 0.986944
vt 0.172058 0.979909
vt 0.165000 0.969132
vt 0.161245 0.955912
vt 0.161245 0.941843
vt 0.165000 0.928623
vt 0.172058 0.917846
vt 0.181568 0.910811
vt 0.192381 0.908368
vt 0.203195 0.910811
vt 0.212704 0.917846
vt 0.219762 0.928623
vt 0.223518 0.941843
vt 0.314989 0.535221
vt 0.314989 0.569168
vt 0.009253 0.569168
vt 0.009253 0.535221
vt 0.314989 0.641992
vt 0.314989 0.675939
vt 0.009253 0.675939
vt 0.009253 0.641992
vt 0.650770 0.784353
vt 0.650770 0.818300
vt 0.345033 0.818300
vt 0.345033 0.784354
vt 0.650770 0.713173
vt 0.650770 0.747120
vt 0.345033 0.747120
vt 0.345033 0.713173
vt 0.621727 0.535221
vt 0.621727 0.569168
vt 0.315990 0.569168
vt 0.315990 0.535221
vt 0.314989 0.570812
vt 0.314989 0.604759
vt 0.009253 0.604759
vt 0.009253 0.570812
vt 0.650770 0.855534
vt 0.650770 0.889481
vt 0.345033 0.889481
vt 0.345033 0.855534
vt 0.650770 0.819944
vt 0.650770 0.853891
vt 0.345033 0.853891
vt 0.345033 0.819944
vt 0.621727 0.570812
vt 0.621727 0.604759
vt 0.315990 0.604759
vt 0.315990 0.570812
vt 0.650770 0.891124
vt 0.650770 0.925071
vt 0.345033 0.925071
vt 0.345033 0.891124
vt 0.314989 0.499631
vt 0.314989 0.533578
vt 0.009253 0.533578
vt 0.009253 0.499631
vt 0.621727 0.499631
vt 0.621727 0.533578
vt 0.315990 0.533578
vt 0.315990 0.499631
vt 0.314989 0.677583
vt 0.314989 0.711529
vt 0.009253 0.711529
vt 0.009253 0.677583
vt 0.621727 0.641992
vt 0.621727 0.675939
vt 0.315990 0.675939
vt 0.315990 0.641992
vt 0.650770 0.677583
vt 0.650770 0.711529
vt 0.345033 0.711529
vt 0.345033 0.677583
vt 0.650770 0.748763
vt 0.650770 0.782710
vt 0.345033 0.782710
vt 0.345033 0.748763
vt 0.314989 0.606402
vt 0.314989 0.640349
vt 0.009253 0.640349
vt 0.009253 0.606402
vt 0.621727 0.606402
vt 0.621727 0.640349
vt 0.315990 0.640349
vt 0.315990 0.606402
vt 0.494284 0.380075
vt 0.494284 0.414022
vt 0.005715 0.414022
vt 0.005715 0.380075
vt 0.494285 0.558026
vt 0.494285 0.591973
vt 0.005715 0.591973
vt 0.005715 0.558026
vt 0.494285 0.913929
vt 0.494285 0.947876
vt 0.005715 0.947876
vt 0.005715 0.913929
vt 0.494284 0.344485
vt 0.494284 0.378431
vt 0.005715 0.378431
vt 0.005715 0.344485
vt 0.494285 0.522436
vt 0.494285 0.556383
vt 0.005715 0.556383
vt 0.005715 0.522436
vt 0.494285 0.807158
vt 0.494285 0.841105
vt 0.005715 0.841105
vt 0.005715 0.807158
vt 0.494284 0.451255
vt 0.494284 0.485202
vt 0.005715 0.485202
vt 0.005715 0.451255
vt 0.494285 0.664797
vt 0.494285 0.698744
vt 0.005715 0.698744
vt 0.005715 0.664797
vt 0.494285 0.949519
vt 0.494285 0.983466
vt 0.005715 0.983466
vt 0.005715 0.949519
vt 0.494285 0.771568
vt 0.494285 0.805515
vt 0.005715 0.805515
vt 0.005715 0.771568
vt 0.494285 0.878339
vt 0.494285 0.912285
vt 0.005715 0.912285
vt 0.005715 0.878339
vt 0.494285 0.842748
vt 0.494285 0.876695
vt 0.005715 0.876695
vt 0.005715 0.842748
vt 0.494285 0.629207
vt 0.494285 0.663154
vt 0.005715 0.663154
vt 0.005715 0.629207
vt 0.494284 0.415665
vt 0.494284 0.449612
vt 0.005715 0.449612
vt 0.005715 0.415665
vt 0.494285 0.735978
vt 0.494285 0.769924
vt 0.005715 0.769924
vt 0.005715 0.735978
vt 0.494285 0.700387
vt 0.494285 0.734334
vt 0.005715 0.734334
vt 0.005715 0.700387
vt 0.494285 0.593616
vt 0.494285 0.627563
vt 0.005715 0.627563
vt 0.005715 0.593616
vt 0.494285 0.486846
vt 0.494285 0.520792
vt 0.005715 0.520792
vt 0.005715 0.486846
vt 0.886564 0.628193
vt 0.867962 0.628193
vt 0.867962 0.327039
vt 0.886564 0.327039
vt 0.828056 0.628193
vt 0.809453 0.628193
vt 0.809453 0.327039
vt 0.828056 0.327039
vt 0.945072 0.628193
vt 0.926470 0.628193
vt 0.926470 0.327039
vt 0.945072 0.327039
vt 0.984077 0.628193
vt 0.965475 0.628193
vt 0.965475 0.327039
vt 0.984077 0.327039
vt 0.847558 0.930248
vt 0.828956 0.930248
vt 0.828956 0.629094
vt 0.847558 0.629094
vt 0.769548 0.930248
vt 0.750945 0.930248
vt 0.750945 0.629094
vt 0.769548 0.629094
vt 0.789050 0.930248
vt 0.770448 0.930248
vt 0.770448 0.629094
vt 0.789050 0.629094
vt 0.906066 0.628193
vt 0.887464 0.628193
vt 0.887464 0.327039
vt 0.906066 0.327039
vt 0.769548 0.628193
vt 0.750945 0.628193
vt 0.750945 0.327039
vt 0.769548 0.327039
vt 0.847558 0.628193
vt 0.828956 0.628193
vt 0.828956 0.327039
vt 0.847558 0.327039
vt 0.808553 0.628193
vt 0.789951 0.628193
vt 0.789951 0.327039
vt 0.808553 0.327039
vt 0.789050 0.628193
vt 0.770448 0.628193
vt 0.770448 0.327039
vt 0.789050 0.327039
vt 0.867061 0.628193
vt 0.848459 0.628193
vt 0.848459 0.327039
vt 0.867061 0.327039
vt 0.808553 0.930248
vt 0.789951 0.930248
vt 0.789951 0.629094
vt 0.808553 0.629094
vt 0.964575 0.628193
vt 0.945973 0.628193
vt 0.945973 0.327039
vt 0.964575 0.327039
vt 0.867061 0.930248
vt 0.848459 0.930248
vt 0.848459 0.629094
vt 0.867061 0.629094
vt 0.925569 0.628193
vt 0.906967 0.628193
vt 0.906967 0.327039
vt 0.925569 0.327039
vt 0.828056 0.930248
vt 0.809453 0.930248
vt 0.809453 0.629094
vt 0.828056 0.629094
s 1
usemtl Material.003
f 64/1/1 62/2/1 60/3/1 58/4/1 56/5/1 54/6/1 52/7/1 50/8/1 48/9/1 46/10/1 44/11/1 42/12/1 40/13/1 38/14/1 36/15/1 34/16/1 32/17/1 30/18/1 28/19/1 26/20/1 24/21/1 22/22/1 20/23/1 18/24/1 16/25/1 14/26/1 12/27/1 10/28/1 8/29/1 6/30/1 4/31/1 2/32/1
f 2/33/2 1/34/2 63/35/2 64/36/2
f 4/37/3 3/38/3 1/34/3 2/33/3
f 61/39/4 63/40/4 1/41/4 3/42/4 5/43/4 7/44/4 9/45/4 11/46/4 13/47/4 15/48/4 17/49/4 19/50/4 21/51/4 23/52/4 25/53/4 27/54/4 29/55/4 31/56/4 33/57/4 35/58/4 37/59/4 39/60/4 41/61/4 43/62/4 45/63/4 47/64/4 49/65/4 51/66/4 53/67/4 55/68/4 57/69/4 59/70/4
f 6/71/5 5/72/5 3/38/5 4/37/5
f 8/73/6 7/74/6 5/72/6 6/71/6
f 10/75/7 9/76/7 7/74/7 8/73/7
f 12/77/8 11/78/8 9/76/8 10/75/8
f 14/79/9 13/80/9 11/78/9 12/77/9
f 16/81/10 15/82/10 13/80/10 14/79/10
f 18/83/11 17/84/11 15/82/11 16/81/11
f 20/85/12 19/86/12 17/84/12 18/83/12
f 22/87/13 21/88/13 19/86/13 20/85/13
f 24/89/14 23/90/14 21/88/14 22/87/14
f 26/91/15 25/92/15 23/90/15 24/89/15
f 28/93/16 27/94/16 25/92/16 26/91/16
f 30/95/17 29/96/17 27/94/17 28/93/17
f 32/97/18 31/98/18 29/96/18 30/95/18
f 34/99/19 33/100/19 31/98/19 32/97/19
f 36/101/20 35/102/20 33/100/20 34/99/20
f 38/103/21 37/104/21 35/102/21 36/101/21
f 40/105/22 39/106/22 37/104/22 38/103/22
f 42/107/23 41/108/23 39/106/23 40/105/23
f 44/109/24 43/110/24 41/108/24 42/107/24
f 46/111/25 45/112/25 43/110/25 44/109/25
f 48/113/26 47/114/26 45/112/26 46/111/26
f 50/115/27 49/116/27 47/114/27 48/113/27
f 52/117/28 51/118/28 49/116/28 50/115/28
f 54/119/29 53/120/29 51/118/29 52/117/29
f 56/121/30 55/122/30 53/120/30 54/119/30
f 58/123/31 57/124/31 55/122/31 56/121/31
f 60/125/32 59/126/32 57/124/32 58/123/32
f 62/127/33 61/128/33 59/126/33 60/125/33
f 64/129/34 63/130/34 61/128/34 62/127/34
usemtl Material.005
f 66/131/35 65/132/35 82/133/35 81/134/35 80/135/35 79/136/35 78/137/35 77/138/35 76/139/35 75/140/35 74/141/35 73/142/35 72/143/35 71/144/35 70/145/35 69/146/35 68/147/35 67/148/35
f 83/149/36 85/150/36 86/151/36 87/152/36 88/153/36 89/154/36 90/155/36 91/156/36 92/157/36 93/158/36 94/159/36 95/160/36 96/161/36 97/162/36 98/163/36 99/164/36 100/165/36 84/166/36
f 134/167/37 119/168/37 93/169/37 92/170/37
f 135/171/38 120/172/38 86/173/38 85/174/38
f 136/175/39 121/176/39 84/177/39 100/178/39
f 119/179/40 122/180/40 94/181/40 93/182/40
f 120/183/41 123/184/41 87/185/41 86/186/41
f 122/187/42 124/188/42 95/189/42 94/190/42
f 123/191/4 125/192/4 88/193/4 87/194/4
f 124/195/43 126/196/43 96/197/43 95/198/43
f 125/199/44 127/200/44 89/201/44 88/202/44
f 126/203/1 128/204/1 97/205/1 96/206/1
f 127/207/45 129/208/45 90/209/45 89/210/45
f 128/211/46 130/212/46 98/213/46 97/214/46
f 129/215/47 131/216/47 91/217/47 90/218/47
f 121/219/48 132/220/48 83/221/48 84/222/48
f 130/223/49 133/224/49 99/225/49 98/226/49
f 131/227/50 134/228/50 92/229/50 91/230/50
f 132/231/51 135/232/51 85/233/51 83/234/51
f 133/235/52 136/236/52 100/237/52 99/238/52
f 81/239/52 82/240/52 106/241/52 118/242/52
f 66/243/51 67/244/51 104/245/51 117/246/51
f 73/247/50 74/248/50 102/249/50 116/250/50
f 80/251/49 81/252/49 118/253/49 115/254/49
f 65/255/48 66/256/48 117/257/48 105/258/48
f 72/259/47 73/260/47 116/261/47 114/262/47
f 79/263/46 80/264/46 115/265/46 113/266/46
f 71/267/45 72/268/45 114/269/45 112/270/45
f 78/271/1 79/272/1 113/273/1 111/274/1
f 70/275/44 71/276/44 112/277/44 110/278/44
f 77/279/43 78/280/43 111/281/43 109/282/43
f 69/283/4 70/284/4 110/285/4 108/286/4
f 76/287/42 77/288/42 109/289/42 107/290/42
f 68/291/41 69/292/41 108/293/41 103/294/41
f 75/295/40 76/296/40 107/297/40 101/298/40
f 82/299/39 65/300/39 105/301/39 106/302/39
f 67/303/38 68/304/38 103/305/38 104/306/38
f 74/307/37 75/308/37 101/309/37 102/310/37
f 118/311/52 106/312/52 136/313/52 133/314/52
f 117/315/51 104/316/51 135/317/51 132/318/51
f 116/319/50 102/320/50 134/321/50 131/322/50
f 115/323/49 118/324/49 133/325/49 130/326/49
f 105/327/48 117/328/48 132/329/48 121/330/48
f 114/331/47 116/332/47 131/333/47 129/334/47
f 113/335/46 115/336/46 130/337/46 128/338/46
f 112/339/45 114/340/45 129/341/45 127/342/45
f 111/343/1 113/344/1 128/345/1 126/346/1
f 110/347/44 112/348/44 127/349/44 125/350/44
f 109/351/43 111/352/43 126/353/43 124/354/43
f 108/355/4 110/356/4 125/357/4 123/358/4
f 107/359/42 109/360/42 124/361/42 122/362/42
f 103/363/41 108/364/41 123/365/41 120/366/41
f 101/367/40 107/368/40 122/369/40 119/370/40
f 106/371/39 105/372/39 121/373/39 136/374/39
f 104/375/38 103/376/38 120/377/38 135/378/38
f 102/379/37 101/380/37 119/381/37 134/382/37
