# Blender 4.4.3
# www.blender.org
mtllib zona_bateo.mtl
o Cube.013
v 19.724194 15.467420 -12.652544
v 19.724194 -0.013401 -12.652544
v 19.724194 15.467420 8.143795
v 19.724194 -0.013401 8.143795
v -19.201462 15.467420 -12.652544
v -19.201462 -0.013401 -12.652544
v -19.201462 15.467420 8.143795
v -19.201462 -0.013401 8.143795
vn 1.0000 -0.0000 -0.0000
vn -1.0000 -0.0000 -0.0000
vn -0.0000 -0.0000 -1.0000
vn -0.0000 1.0000 -0.0000
vn -0.0000 -1.0000 -0.0000
vt 0.375000 0.000000
vt 0.625000 0.000000
vt 0.625000 0.250000
vt 0.375000 0.250000
vt 0.375000 0.500000
vt 0.625000 0.500000
vt 0.625000 0.750000
vt 0.375000 0.750000
vt 0.625000 1.000000
vt 0.375000 1.000000
vt 0.125000 0.500000
vt 0.125000 0.750000
vt 0.875000 0.500000
vt 0.875000 0.750000
s 0
usemtl Material.124
f 1/1/1 3/4/1 4/3/1 2/2/1
f 7/5/2 5/8/2 6/7/2 8/6/2
f 5/8/3 1/10/3 2/9/3 6/7/3
f 3/11/4 1/12/4 5/8/4 7/5/4
f 8/6/5 6/7/5 2/14/5 4/13/5
o Plane.006
v -4.811547 15.534168 7.943659
v 5.349377 15.534168 7.943659
v -4.811547 25.694054 7.798423
v 5.349377 25.694054 7.798423
vn -0.0000 0.0143 0.9999
vt 0.000000 0.000000
vt 1.000000 0.000000
vt 1.000000 1.000000
vt 0.000000 1.000000
s 0
usemtl Material.023
f 9/15/6 10/16/6 12/17/6 11/18/6
o Plane.005
v -17.541075 0.158426 -6.614475
v -7.181353 0.158426 -6.614475
v -17.541075 12.693595 -6.553837
v -7.181353 12.693595 -6.553837
vn -0.0000 -0.0048 1.0000
vt 0.000000 0.000000
vt 1.000000 0.000000
vt 1.000000 1.000000
vt 0.000000 1.000000
s 0
usemtl Material.006
f 13/19/7 14/20/7 16/21/7 15/22/7
o Plane.007
v -17.604626 12.734996 6.434213
v -7.048359 12.734996 6.434213
v -17.604626 12.734996 -6.645122
v -7.048359 12.734996 -6.645122
vn -0.0000 1.0000 -0.0000
vt 0.000000 0.000000
vt 1.000000 0.000000
vt 1.000000 1.000000
vt 0.000000 1.000000
s 0
usemtl Material.007
f 17/23/8 18/24/8 20/25/8 19/26/8
o Plane.008
v -7.064180 12.745234 6.619289
v -7.131285 0.093503 6.619289
v -7.064180 12.745234 -6.619289
v -7.131285 0.093503 -6.619289
vn 1.0000 -0.0053 -0.0000
vt 0.000000 0.000000
vt 1.000000 0.000000
vt 1.000000 1.000000
vt 0.000000 1.000000
s 0
usemtl Material.005
f 21/27/9 22/28/9 24/29/9 23/30/9
o Plane.009
v -17.614260 12.745234 6.619289
v -17.681364 0.093503 6.619289
v -17.614260 12.745234 -6.619289
v -17.681364 0.093503 -6.619289
vn 1.0000 -0.0053 -0.0000
vt 0.000000 0.000000
vt 1.000000 0.000000
vt 1.000000 1.000000
vt 0.000000 1.000000
s 0
usemtl Material.004
f 25/31/10 26/32/10 28/33/10 27/34/10
o Plane.010
v -17.604626 0.111110 6.434213
v -7.048359 0.111110 6.434213
v -17.604626 0.111110 -6.645122
v -7.048359 0.111110 -6.645122
vn -0.0000 1.0000 -0.0000
vt 0.000000 0.000000
vt 1.000000 0.000000
vt 1.000000 1.000000
vt 0.000000 1.000000
s 0
usemtl Material.008
f 29/35/11 30/36/11 32/37/11 31/38/11
o Plane.011
v -4.539881 0.158426 -6.614475
v 5.819841 0.158426 -6.614475
v -4.539881 12.693595 -6.553837
v 5.819841 12.693595 -6.553837
vn -0.0000 -0.0048 1.0000
vt 0.000000 0.000000
vt 1.000000 0.000000
vt 1.000000 1.000000
vt 0.000000 1.000000
s 0
usemtl Material.013
f 33/39/12 34/40/12 36/41/12 35/42/12
o Plane.012
v -4.603431 12.734996 6.434213
v 5.952835 12.734996 6.434213
v -4.603431 12.734996 -6.645122
v 5.952835 12.734996 -6.645122
vn -0.0000 1.0000 -0.0000
vt 0.000000 0.000000
vt 1.000000 0.000000
vt 1.000000 1.000000
vt 0.000000 1.000000
s 0
usemtl Material.014
f 37/43/13 38/44/13 40/45/13 39/46/13
o Plane.013
v 5.937014 12.745234 6.619289
v 5.869909 0.093503 6.619289
v 5.937014 12.745234 -6.619289
v 5.869909 0.093503 -6.619289
vn 1.0000 -0.0053 -0.0000
vt 0.000000 0.000000
vt 1.000000 0.000000
vt 1.000000 1.000000
vt 0.000000 1.000000
s 0
usemtl Material.010
f 41/47/14 42/48/14 44/49/14 43/50/14
o Plane.014
v -4.613062 12.745234 6.619289
v -4.680166 0.093503 6.619289
v -4.613062 12.745234 -6.619289
v -4.680166 0.093503 -6.619289
vn 1.0000 -0.0053 -0.0000
vt 0.000000 0.000000
vt 1.000000 0.000000
vt 1.000000 1.000000
vt 0.000000 1.000000
s 0
usemtl Material.009
f 45/51/15 46/52/15 48/53/15 47/54/15
o Plane.015
v -4.603431 0.111110 6.434213
v 5.952835 0.111110 6.434213
v -4.603431 0.111110 -6.645122
v 5.952835 0.111110 -6.645122
vn -0.0000 1.0000 -0.0000
vt 0.000000 0.000000
vt 1.000000 0.000000
vt 1.000000 1.000000
vt 0.000000 1.000000
s 0
usemtl Material.017
f 49/55/16 50/56/16 52/57/16 51/58/16
o Plane.016
v 7.998129 0.158426 -6.614475
v 18.357851 0.158426 -6.614475
v 7.998129 12.693595 -6.553837
v 18.357851 12.693595 -6.553837
vn -0.0000 -0.0048 1.0000
vt 0.000000 0.000000
vt 1.000000 0.000000
vt 1.000000 1.000000
vt 0.000000 1.000000
s 0
usemtl Material.015
f 53/59/17 54/60/17 56/61/17 55/62/17
o Plane.017
v 7.934578 12.734996 6.434213
v 18.490845 12.734996 6.434213
v 7.934578 12.734996 -6.645122
v 18.490845 12.734996 -6.645122
vn -0.0000 1.0000 -0.0000
vt 0.000000 0.000000
vt 1.000000 0.000000
vt 1.000000 1.000000
vt 0.000000 1.000000
s 0
usemtl Material.016
f 57/63/18 58/64/18 60/65/18 59/66/18
o Plane.018
v 18.475023 12.745234 6.619289
v 18.407919 0.093503 6.619289
v 18.475023 12.745234 -6.619289
v 18.407919 0.093503 -6.619289
vn 1.0000 -0.0053 -0.0000
vt 0.000000 0.000000
vt 1.000000 0.000000
vt 1.000000 1.000000
vt 0.000000 1.000000
s 0
usemtl Material.012
f 61/67/19 62/68/19 64/69/19 63/70/19
o Plane.019
v 7.924948 12.745234 6.619289
v 7.857843 0.093503 6.619289
v 7.924948 12.745234 -6.619289
v 7.857843 0.093503 -6.619289
vn 1.0000 -0.0053 -0.0000
vt 0.000000 0.000000
vt 1.000000 0.000000
vt 1.000000 1.000000
vt 0.000000 1.000000
s 0
usemtl Material.011
f 65/71/20 66/72/20 68/73/20 67/74/20
o Plane.020
v 7.934578 0.111110 6.434213
v 18.490845 0.111110 6.434213
v 7.934578 0.111110 -6.645122
v 18.490845 0.111110 -6.645122
vn -0.0000 1.0000 -0.0000
vt 0.000000 0.000000
vt 1.000000 0.000000
vt 1.000000 1.000000
vt 0.000000 1.000000
s 0
usemtl Material.018
f 69/75/21 70/76/21 72/77/21 71/78/21
