# Blender 4.3.2
# www.blender.org
mtllib dadosA.mtl
o Cube.005
v -59.351135 24.062471 -34.627327
v -59.351135 26.642653 -34.627327
v -59.351135 24.062471 -37.207512
v -59.351135 26.642653 -37.207512
v -56.770950 24.062471 -34.627327
v -56.770950 26.642653 -34.627327
v -56.770950 24.062471 -37.207512
v -56.770950 26.642653 -37.207512
vn -1.0000 -0.0000 -0.0000
vn -0.0000 -0.0000 -1.0000
vn 1.0000 -0.0000 -0.0000
vn -0.0000 -0.0000 1.0000
vn -0.0000 -1.0000 -0.0000
vn -0.0000 1.0000 -0.0000
vt 0.752604 0.097656
vt 1.002604 0.105469
vt 1.002604 0.484375
vt 0.752604 0.476562
vt 0.533854 0.121094
vt 0.760417 0.097656
vt 0.760417 0.511719
vt 0.533854 0.535156
vt 0.348958 0.484375
vt 0.591146 0.480469
vt 0.591146 0.984375
vt 0.291667 0.984375
vt 0.044271 0.507812
vt 0.299479 0.492188
vt 0.299479 0.914062
vt 0.044271 0.929688
vt 0.182292 0.074219
vt 0.432292 0.074219
vt 0.432292 0.511719
vt 0.182292 0.511719
vt 0.653646 0.511719
vt 0.903646 0.511719
vt 0.903646 0.980469
vt 0.653646 0.980469
s 0
usemtl Material.004
f 1/1/1 2/2/1 4/3/1 3/4/1
f 3/5/2 4/6/2 8/7/2 7/8/2
f 7/9/3 8/10/3 6/11/3 5/12/3
f 5/13/4 6/14/4 2/15/4 1/16/4
f 3/17/5 7/18/5 5/19/5 1/20/5
f 8/21/6 4/22/6 2/23/6 6/24/6
o Cube.006
v -55.430954 24.062471 -29.570797
v -55.430954 26.642653 -29.570797
v -56.836006 24.062471 -31.734859
v -56.836006 26.642653 -31.734859
v -53.266891 24.062471 -30.975849
v -53.266891 26.642653 -30.975849
v -54.671944 24.062471 -33.139912
v -54.671944 26.642653 -33.139912
vn -0.8387 -0.0000 0.5446
vn -0.5446 -0.0000 -0.8387
vn 0.8387 -0.0000 -0.5446
vn 0.5446 -0.0000 0.8387
vn -0.0000 -1.0000 -0.0000
vn -0.0000 1.0000 -0.0000
vt 0.752604 0.097656
vt 1.002604 0.105469
vt 1.002604 0.484375
vt 0.752604 0.476562
vt 0.533854 0.121094
vt 0.760417 0.097656
vt 0.760417 0.511719
vt 0.533854 0.535156
vt 0.348958 0.484375
vt 0.591146 0.480469
vt 0.591146 0.984375
vt 0.291667 0.984375
vt 0.044271 0.507812
vt 0.299479 0.492188
vt 0.299479 0.914062
vt 0.044271 0.929688
vt 0.182292 0.074219
vt 0.432292 0.074219
vt 0.432292 0.511719
vt 0.182292 0.511719
vt 0.653646 0.511719
vt 0.903646 0.511719
vt 0.903646 0.980469
vt 0.653646 0.980469
s 0
usemtl Material.004
f 9/25/7 10/26/7 12/27/7 11/28/7
f 11/29/8 12/30/8 16/31/8 15/32/8
f 15/33/9 16/34/9 14/35/9 13/36/9
f 13/37/10 14/38/10 10/39/10 9/40/10
f 11/41/11 15/42/11 13/43/11 9/44/11
f 16/45/12 12/46/12 10/47/12 14/48/12
o Cube.007
v -58.453484 24.062471 -29.361277
v -61.033665 24.062471 -29.361275
v -58.453487 24.062471 -31.941460
v -61.033669 24.062471 -31.941458
v -58.453484 26.642653 -29.361277
v -61.033665 26.642653 -29.361275
v -58.453487 26.642653 -31.941460
v -61.033669 26.642653 -31.941458
vn -0.0000 -1.0000 -0.0000
vn -0.0000 -0.0000 -1.0000
vn -0.0000 1.0000 -0.0000
vn -0.0000 -0.0000 1.0000
vn 1.0000 -0.0000 -0.0000
vn -1.0000 -0.0000 -0.0000
vt 0.752604 0.097656
vt 1.002604 0.105469
vt 1.002604 0.484375
vt 0.752604 0.476562
vt 0.533854 0.121094
vt 0.760417 0.097656
vt 0.760417 0.511719
vt 0.533854 0.535156
vt 0.348958 0.484375
vt 0.591146 0.480469
vt 0.591146 0.984375
vt 0.291667 0.984375
vt 0.044271 0.507812
vt 0.299479 0.492188
vt 0.299479 0.914062
vt 0.044271 0.929688
vt 0.182292 0.074219
vt 0.432292 0.074219
vt 0.432292 0.511719
vt 0.182292 0.511719
vt 0.653646 0.511719
vt 0.903646 0.511719
vt 0.903646 0.980469
vt 0.653646 0.980469
s 0
usemtl Material.004
f 17/49/13 18/50/13 20/51/13 19/52/13
f 19/53/14 20/54/14 24/55/14 23/56/14
f 23/57/15 24/58/15 22/59/15 21/60/15
f 21/61/16 22/62/16 18/63/16 17/64/16
f 19/65/17 23/66/17 21/67/17 17/68/17
f 24/69/18 20/70/18 18/71/18 22/72/18
o Cube.008
v -53.905056 24.062471 -26.967142
v -53.905056 24.062471 -24.386961
v -53.905056 26.642653 -26.967142
v -53.905056 26.642653 -24.386961
v -51.324871 24.062471 -26.967142
v -51.324871 24.062471 -24.386961
v -51.324871 26.642653 -26.967142
v -51.324871 26.642653 -24.386961
vn -1.0000 -0.0000 -0.0000
vn -0.0000 1.0000 -0.0000
vn 1.0000 -0.0000 -0.0000
vn -0.0000 -1.0000 -0.0000
vn -0.0000 -0.0000 -1.0000
vn -0.0000 -0.0000 1.0000
vt 0.752604 0.097656
vt 1.002604 0.105469
vt 1.002604 0.484375
vt 0.752604 0.476562
vt 0.533854 0.121094
vt 0.760417 0.097656
vt 0.760417 0.511719
vt 0.533854 0.535156
vt 0.348958 0.484375
vt 0.591146 0.480469
vt 0.591146 0.984375
vt 0.291667 0.984375
vt 0.044271 0.507812
vt 0.299479 0.492188
vt 0.299479 0.914062
vt 0.044271 0.929688
vt 0.182292 0.074219
vt 0.432292 0.074219
vt 0.432292 0.511719
vt 0.182292 0.511719
vt 0.653646 0.511719
vt 0.903646 0.511719
vt 0.903646 0.980469
vt 0.653646 0.980469
s 0
usemtl Material.004
f 25/73/19 26/74/19 28/75/19 27/76/19
f 27/77/20 28/78/20 32/79/20 31/80/20
f 31/81/21 32/82/21 30/83/21 29/84/21
f 29/85/22 30/86/22 26/87/22 25/88/22
f 27/89/23 31/90/23 29/91/23 25/92/23
f 32/93/24 28/94/24 26/95/24 30/96/24
o Cube.009
v -60.316513 26.642653 -23.483761
v -58.011406 26.642653 -24.642996
v -61.475746 26.642653 -25.788866
v -59.170643 26.642653 -26.948101
v -60.316509 24.062471 -23.483761
v -58.011406 24.062471 -24.642996
v -61.475746 24.062471 -25.788866
v -59.170639 24.062471 -26.948101
vn -0.0000 1.0000 -0.0000
vn -0.4493 -0.0000 -0.8934
vn -0.0000 -1.0000 -0.0000
vn 0.4493 -0.0000 0.8934
vn -0.8934 -0.0000 0.4493
vn 0.8934 -0.0000 -0.4493
vt 0.752604 0.097656
vt 1.002604 0.105469
vt 1.002604 0.484375
vt 0.752604 0.476562
vt 0.533854 0.121094
vt 0.760417 0.097656
vt 0.760417 0.511719
vt 0.533854 0.535156
vt 0.348958 0.484375
vt 0.591146 0.480469
vt 0.591146 0.984375
vt 0.291667 0.984375
vt 0.044271 0.507812
vt 0.299479 0.492188
vt 0.299479 0.914062
vt 0.044271 0.929688
vt 0.182292 0.074219
vt 0.432292 0.074219
vt 0.432292 0.511719
vt 0.182292 0.511719
vt 0.653646 0.511719
vt 0.903646 0.511719
vt 0.903646 0.980469
vt 0.653646 0.980469
s 0
usemtl Material.004
f 33/97/25 34/98/25 36/99/25 35/100/25
f 35/101/26 36/102/26 40/103/26 39/104/26
f 39/105/27 40/106/27 38/107/27 37/108/27
f 37/109/28 38/110/28 34/111/28 33/112/28
f 35/113/29 39/114/29 37/115/29 33/116/29
f 40/117/30 36/118/30 34/119/30 38/120/30
