# Blender 4.3.2
# www.blender.org
mtllib maquina.mtl
o maquina
v 2.969425 0.246662 -3.026225
v 2.969425 0.022415 -3.026225
v 2.969425 0.246662 3.026225
v 2.969425 0.022415 3.026225
v -2.969425 0.246662 -3.026225
v -2.969425 0.022415 -3.026225
v -2.969425 0.246662 3.026225
v -2.969425 0.022415 3.026225
v 2.600864 0.633525 2.650614
v -2.624486 0.601815 2.709481
v 2.600864 0.633525 -2.650614
v -2.624486 0.601815 -2.591747
v 3.195141 5.173980 3.256259
v -3.218764 5.142270 3.315126
v 3.195141 5.173980 -3.256259
v -3.218764 5.142270 -3.197392
v 2.767891 5.473418 2.820837
v -2.767891 5.473418 2.820837
v 2.767891 5.473418 -2.820837
v -2.767891 5.473418 -2.820837
v 2.848759 5.604580 2.903251
v -2.848759 5.604580 2.903251
v 2.848759 5.604580 -2.903251
v -2.848759 5.604580 -2.903251
v 0.834342 6.813938 0.850301
v -0.834342 6.813938 0.850301
v 0.834342 6.813938 -0.850301
v -0.834342 6.813938 -0.850301
v 1.708577 5.776594 2.197768
v -1.676164 5.776594 2.197768
v 0.532678 7.031254 1.620626
v -0.500265 7.031254 1.620626
v 1.708577 5.776594 2.197768
v -1.676164 5.776594 2.197768
v 0.532678 7.031254 1.620626
v -0.500265 7.031254 1.620626
v 0.143577 6.008168 2.146045
v -0.086335 6.008858 2.169097
v -0.081759 6.863339 2.189204
v 0.130565 6.864686 2.173642
v -2.600864 0.633525 -2.650614
v 2.600864 0.633525 -2.650614
v -3.195141 5.173980 -3.256259
v 3.195141 5.173980 -3.256259
vn 0.0019 0.6822 0.7311
vn -0.0000 -0.0000 1.0000
vn -1.0000 -0.0000 -0.0000
vn -0.0000 -1.0000 -0.0000
vn 1.0000 -0.0000 -0.0000
vn -0.0000 -0.0000 -1.0000
vn -0.0000 1.0000 -0.0000
vn -0.7173 0.6967 -0.0000
vn 0.7240 0.6898 -0.0000
vn -0.0057 0.7373 -0.6755
vn -0.5920 0.8060 -0.0000
vn 0.9915 -0.1298 -0.0000
vn -0.9915 -0.1298 -0.0000
vn 0.0107 -0.1322 0.9912
vn -0.8512 -0.5248 -0.0000
vn 0.0006 0.8276 0.5613
vn -0.0051 0.7899 -0.6133
vn 0.5739 0.8189 -0.0000
vn 0.5147 0.8574 -0.0000
vn -0.0000 -0.5320 0.8467
vn -0.0000 -0.5320 -0.8467
vn 0.8512 -0.5248 -0.0000
vn -0.0000 0.8616 -0.5076
vn -0.0000 0.9358 0.3526
vn 0.2409 0.3693 0.8975
vn -0.0000 0.9624 -0.2715
vn 0.0870 -0.0273 0.9958
vn 0.0063 0.1704 0.9853
vn -0.2518 0.3764 0.8916
vn 0.0025 0.9583 0.2857
vn -0.0000 -0.1322 -0.9912
vn -0.0000 0.8804 0.4742
vn -0.0000 -0.8804 -0.4742
vn -0.8778 -0.1744 -0.4462
vn -0.5147 0.8574 -0.0000
vt 0.038255 0.928330
vt 0.407695 0.928330
vt 0.393822 1.180748
vt 0.052128 1.180748
vt 0.938244 0.453239
vt 0.946685 0.453239
vt 0.946685 0.912921
vt 0.938244 0.912921
vt 0.958858 0.964067
vt 0.950417 0.964067
vt 0.950417 0.495592
vt 0.958858 0.495592
vt 0.978710 0.838235
vt 0.832442 0.838235
vt 0.832442 0.531697
vt 0.978710 0.531697
vt 0.941331 0.495592
vt 0.949772 0.495592
vt 0.949772 0.964067
vt 0.941331 0.964067
vt 0.864146 0.879948
vt 0.855705 0.879948
vt 0.855705 0.420266
vt 0.864146 0.420266
vt 0.458996 0.910783
vt 0.268263 0.959691
vt 0.268494 0.958976
vt 0.458685 0.910368
vt 0.920574 0.964067
vt 0.920574 0.495592
vt 0.940686 0.524665
vt 0.940686 0.934994
vt 0.919929 0.495592
vt 0.919929 0.964067
vt 0.899817 0.934994
vt 0.899817 0.524665
vt 0.944465 0.950604
vt 0.944465 0.490922
vt 0.964761 0.519450
vt 0.964761 0.922077
vt 0.733935 0.902418
vt 0.488803 0.902418
vt 0.505192 0.862034
vt 0.717546 0.862034
vt 0.414664 0.112532
vt 0.821463 0.112532
vt 0.829715 0.960472
vt 0.417321 0.960472
vt 0.416137 0.128558
vt 0.826354 0.128558
vt 0.823177 0.975579
vt 0.422200 0.975580
vt 0.021477 0.111243
vt 0.420694 0.121229
vt 0.425639 0.974477
vt 0.019014 0.975219
vt 0.913573 0.273525
vt 0.873640 0.866938
vt 0.863713 0.850091
vt 0.903624 0.295706
vt 0.786772 0.989686
vt 0.546240 0.989682
vt 0.562322 0.948779
vt 0.770690 0.948782
vt 0.864066 0.361001
vt 0.864066 0.855625
vt 0.844175 0.822555
vt 0.844175 0.394071
vt 0.484018 0.843450
vt 0.729150 0.843450
vt 0.712761 0.883833
vt 0.500407 0.883833
vt 0.164492 1.020892
vt 0.052656 0.991955
vt -0.000261 0.906167
vt -0.013413 0.695788
vt 0.969846 0.169801
vt 0.778988 0.090990
vt 0.785393 0.077417
vt 0.959919 0.152953
vt 0.000323 0.000323
vt 0.267618 0.000323
vt 0.257669 0.022504
vt 0.011623 0.016267
vt 0.898101 0.920018
vt 0.861596 0.405416
vt 0.872897 0.421361
vt 0.904505 0.906445
vt 0.844658 0.640138
vt 0.837389 0.883826
vt 0.792902 1.013075
vt 0.680195 1.016517
vt 0.634554 0.897141
vt 0.565427 0.827374
vt 0.600578 0.693216
vt 0.658790 0.767847
vt 0.634786 0.830404
vt 0.594777 0.760007
vt 0.588619 0.829979
vt 0.574239 0.841173
vt 0.580344 0.719788
vt 0.655297 0.834072
vt 0.605267 0.880952
vt 0.606262 0.857376
vt 0.945263 0.852078
vt 0.891992 0.902409
vt 0.885724 0.856918
vt 0.902004 0.821255
vt 0.890142 0.946841
vt 0.831930 0.872210
vt 0.858908 0.851209
vt 0.892010 0.902609
vt 0.077814 0.464805
vt 0.175191 0.494846
vt 0.175325 0.495059
vt 0.077611 0.465151
vt 0.151166 0.371321
vt 0.109947 0.363973
vt 0.109881 0.363823
vt 0.151203 0.371214
vt 0.806556 0.861515
vt 0.806101 0.891354
vt 0.805275 0.892903
vt 0.804935 0.859999
vt 0.870521 0.720260
vt 0.895187 0.811044
vt 0.858968 0.851160
vt 0.882203 0.847849
vt 0.997274 0.343057
vt 0.997274 0.745684
vt 0.824857 0.791683
vt 0.824857 0.297058
vt 0.460498 0.505053
vt 0.460268 0.505734
vt 0.268263 0.557113
vt 0.268554 0.557519
vt 0.843384 0.644478
vt 0.796780 1.006369
vt 0.678629 1.030361
s 0
usemtl Material
f 7/1/1 3/2/1 9/3/1 10/4/1
f 4/5/2 3/6/2 7/7/2 8/8/2
f 8/9/3 7/10/3 5/11/3 6/12/3
f 6/13/4 2/14/4 4/15/4 8/16/4
f 2/17/5 1/18/5 3/19/5 4/20/5
f 6/21/6 5/22/6 1/23/6 2/24/6
f 15/25/7 11/26/7 42/27/7 44/28/7
f 5/29/8 7/30/8 10/31/8 12/32/8
f 3/33/9 1/34/9 11/35/9 9/36/9
f 1/37/10 5/38/10 12/39/10 11/40/10
f 16/41/11 14/42/11 18/43/11 20/44/11
f 9/45/12 11/46/12 15/47/12 13/48/12
f 12/49/13 10/50/13 14/51/13 16/52/13
f 10/53/14 9/54/14 13/55/14 14/56/14
f 20/57/15 18/58/15 22/59/15 24/60/15
f 14/61/16 13/62/16 17/63/16 18/64/16
f 15/65/17 16/66/17 20/67/17 19/68/17
f 13/69/18 15/70/18 19/71/18 17/72/18
f 23/73/19 27/74/19 25/75/19 21/76/19
f 18/77/20 17/78/20 21/79/20 22/80/20
f 19/81/21 20/82/21 24/83/21 23/84/21
f 17/85/22 19/86/22 23/87/22 21/88/22
f 24/89/23 28/90/23 27/91/23 23/92/23
f 27/93/7 28/94/7 26/95/7 25/96/7
f 33/97/24 34/98/24 36/99/24 26/100/24 22/101/24 21/102/24 25/103/24 35/104/24
f 29/105/25 31/106/25 40/107/25 37/108/25
f 25/109/26 26/110/26 36/111/26 35/112/26
f 29/113/7 30/114/7 34/115/7 33/116/7
f 32/117/7 31/118/7 35/119/7 36/120/7
f 31/118/7 29/113/7 33/116/7 35/119/7
f 30/114/7 32/117/7 36/120/7 34/115/7
f 38/121/27 37/122/27 40/123/27 39/124/27
f 30/125/28 29/105/28 37/108/28 38/126/28
f 32/127/29 30/125/29 38/126/29 39/128/29
f 31/106/30 32/127/30 39/128/30 40/107/30
f 42/129/31 41/130/31 43/131/31 44/132/31
f 16/133/32 15/25/32 44/28/32 43/134/32
f 11/26/33 12/135/33 41/136/33 42/27/33
f 12/135/34 16/133/34 43/134/34 41/136/34
f 22/137/35 26/110/35 28/138/35 24/139/35
